<?xml version="1.0" standalone="no"?><!DOCTYPE svg PUBLIC "-//W3C//DTD SVG 1.1//EN" "http://www.w3.org/Graphics/SVG/1.1/DTD/svg11.dtd"><svg t="1705230848549" class="icon" viewBox="0 0 1024 1024" version="1.1" xmlns="http://www.w3.org/2000/svg" p-id="7534" xmlns:xlink="http://www.w3.org/1999/xlink" width="48" height="48"><path d="M440.8 857.1c16.5-16.5 16.5-43.2 0-59.7L163.9 520.5l255.8-293.9c16.5-16.5 16.5-43.2 0-59.7s-43.2-16.5-59.7 0L76.4 492.7c-16.5 16.5-16.5 43.2 0 59.7l304.7 304.7c16.4 16.5 43.2 16.5 59.7 0z m224.8-352.5c-4.1 4.1-4.1 10.8 0 14.9L942 795.9c4.1 4.1 10.8 4.1 14.9 0s4.1-10.8 0-14.9L688 512.1l268.9-268.9c4.1-4.1 4.1-10.8 0-14.9s-10.8-4.1-14.9 0L665.6 504.6zM491.1 497c-8.2 8.2-8.2 21.4 0 29.6l317 316.9c8.2 8.2 21.4 8.2 29.6 0 8.2-8.2 8.2-21.4 0-29.6L535.5 511.8l302.2-302.1c8.2-8.2 8.2-21.4 0-29.6-8.2-8.2-21.4-8.2-29.6 0L491.1 497z m-193.9-7.2c-12.4 12.4-12.4 32.4 0 44.8l313.4 313.5c12.4 12.4 32.4 12.4 44.8 0 12.4-12.4 12.4-32.4 0-44.8L364.3 512.2l291.1-291.1c12.4-12.4 12.4-32.4 0-44.8-12.4-12.4-32.4-12.4-44.8 0L297.2 489.8z" fill="#bea78b" p-id="7535"></path></svg>