<?xml version="1.0" standalone="no"?><!DOCTYPE svg PUBLIC "-//W3C//DTD SVG 1.1//EN" "http://www.w3.org/Graphics/SVG/1.1/DTD/svg11.dtd"><svg t="1705230743245" class="icon" viewBox="0 0 1024 1024" version="1.1" xmlns="http://www.w3.org/2000/svg" p-id="1625" width="48" height="48" xmlns:xlink="http://www.w3.org/1999/xlink"><path d="M583.2 166.9c-16.5 16.5-16.5 43.2 0 59.7l276.9 276.9-255.8 293.9c-16.5 16.5-16.5 43.2 0 59.7s43.2 16.5 59.7 0l283.6-325.8c16.5-16.5 16.5-43.2 0-59.7L642.9 166.9c-16.4-16.5-43.2-16.5-59.7 0zM358.4 519.4c4.1-4.1 4.1-10.8 0-14.9L82 228.1c-4.1-4.1-10.8-4.1-14.9 0s-4.1 10.8 0 14.9L336 511.9 67.1 780.8c-4.1 4.1-4.1 10.8 0 14.9s10.8 4.1 14.9 0l276.4-276.3z m174.5 7.6c8.2-8.2 8.2-21.4 0-29.6l-317-316.9c-8.2-8.2-21.4-8.2-29.6 0-8.2 8.2-8.2 21.4 0 29.6l302.2 302.1-302.2 302.1c-8.2 8.2-8.2 21.4 0 29.6 8.2 8.2 21.4 8.2 29.6 0l317-316.9z m193.9 7.2c12.4-12.4 12.4-32.4 0-44.8L413.4 175.9c-12.4-12.4-32.4-12.4-44.8 0-12.4 12.4-12.4 32.4 0 44.8l291.1 291.1-291.1 291c-12.4 12.4-12.4 32.4 0 44.8 12.4 12.4 32.4 12.4 44.8 0l313.4-313.4z" fill="#bea78b" p-id="1626"></path></svg>