<?xml version="1.0" standalone="no"?><!DOCTYPE svg PUBLIC "-//W3C//DTD SVG 1.1//EN" "http://www.w3.org/Graphics/SVG/1.1/DTD/svg11.dtd"><svg t="1705297622027" class="icon" viewBox="0 0 1024 1024" version="1.1" xmlns="http://www.w3.org/2000/svg" p-id="5884" xmlns:xlink="http://www.w3.org/1999/xlink" width="32" height="32"><path d="M783.013074 938.360812l-5.889879-5.068441a126.72852 126.72852 0 0 0-103.815668-18.351255c-37.087011 10.136883-69.262878 37.052057-96.929579 81.269842a133.509746 133.509746 0 0 0 117.37812 22.545826 125.644922 125.644922 0 0 0 87.386926-74.453661c0.524322-1.398191 1.87008-5.942311 1.87008-5.942311z m-129.332651-68.51135a126.79843 126.79843 0 0 0-107.381055-24.643113 172.431883 172.431883 0 0 0-98.85209 74.977983 130.765796 130.765796 0 0 0 113.463185 24.468339 144.870046 144.870046 0 0 0 92.76996-74.803209z m-61.642737-175.822495a274.394948 274.394948 0 0 0 58.007441 133.352449 189.035399 189.035399 0 0 0 120.104591 67.11316 362.00908 362.00908 0 0 0-69.507561-145.411845 158.292678 158.292678 0 0 0-108.517084-55.053764z m-157.908176 60.646527a62.796245 62.796245 0 1 0-7.969688 94.727428 122.691244 122.691244 0 0 0 103.710804-35.653866 142.842669 142.842669 0 0 0-95.741116-59.073562z m49.705684-214.971838a260.657723 260.657723 0 0 0-4.876191 135.100187 257.808909 257.808909 0 0 0 73.684656 127.060591 355.350196 355.350196 0 0 0-0.139819-154.849633 203.821266 203.821266 0 0 0-68.668646-107.311145z m-103.116573 91.756272a131.080389 131.080389 0 0 0-103.518553-1.048643 159.918075 159.918075 0 0 0 78.193822 83.367127 113.603004 113.603004 0 0 0 102.697115-0.349547 160.372487 160.372487 0 0 0-77.372384-81.968937z m33.574057-221.263697a215.985527 215.985527 0 0 0-25.219867 115.001195 170.946305 170.946305 0 0 0 43.885714 110.631848 221.962792 221.962792 0 0 0 24.817887-119.545315 180.349138 180.349138 0 0 0-43.448779-106.087728z m-173.480526 57.675371a175.350606 175.350606 0 0 0 47.765694 101.019287 115.560471 115.560471 0 0 0 91.424202 37.925926 177.937259 177.937259 0 0 0-48.796859-101.194061A129.87445 129.87445 0 0 0 240.82963 467.869602z m19.731968-138.420891a178.741219 178.741219 0 0 0 20.867998 104.864312 123.058269 123.058269 0 0 0 73.981772 62.918586 182.463902 182.463902 0 0 0-22.213757-106.437275 136.323605 136.323605 0 0 0-72.636013-61.345623z m180.733641-86.513056a160.180236 160.180236 0 0 0-61.712647 77.250042 175.542857 175.542857 0 0 0-9.193105 105.388633 160.791944 160.791944 0 0 0 63.250657-79.87165 184.141731 184.141731 0 0 0 7.690049-102.767025z m-162.539683-43.169142a161.683291 161.683291 0 0 0 7.847346 97.698583 122.341697 122.341697 0 0 0 61.852466 68.161803 164.654446 164.654446 0 0 0-8.895989-99.621096 133.055334 133.055334 0 0 0-60.698959-66.23929z m62.708858-91.581498a152.33289 152.33289 0 0 0-11.500119 91.581498 126.483837 126.483837 0 0 0 43.850759 78.47346 154.832156 154.832156 0 0 0 11.02823-94.028333 136.410992 136.410992 0 0 0-43.37887-76.026625z m180.279229 15.205325a128.458781 128.458781 0 0 0-80.395972 31.634067 137.42468 137.42468 0 0 0-46.85687 77.59959 122.656289 122.656289 0 0 0 81.234887-31.284519 146.705172 146.705172 0 0 0 46.122819-77.949138zM413.768356 13.457587A136.131353 136.131353 0 0 0 382.780952 92.630142a124.561324 124.561324 0 0 0 22.248712 82.668032 138.071343 138.071343 0 0 0 31.319474-81.619389A132.828128 132.828128 0 0 0 413.768356 13.457587z m119.073426-13.282813a129.175354 129.175354 0 0 0-88.662775 128.983103 122.656289 122.656289 0 0 0 66.57136-49.286227 131.971736 131.971736 0 0 0 22.196279-79.696876z" fill="#B98E47" p-id="5885"></path></svg>